Coordinates
version=1
nRows=60
nColumns=12
inDegrees=yes

Units are S.I. units (second, meters, Newtons, ...)
Angles are in degrees

endheader
time	SC_y	SC_z	SC_x	AC_y	AC_z	AC_x	GH_y	GH_z	GH_yy	EL_x	PS_y
       0.0              -32.78          25.99          67.42          65.83         -9.901         -19.49         -103.8           50.0         -175.8          119.3          129.8
   0.02537              -32.79          25.99          67.42          65.83         -9.902         -19.49         -103.8           50.0         -175.7          119.3          129.7
   0.05074              -32.79          25.98          67.42          65.83         -9.902         -19.48         -103.8           50.0         -175.7          119.3          129.7
   0.07611              -32.79          25.98          67.42          65.82         -9.902         -19.48         -103.8           50.0         -175.6          119.2          129.7
    0.1015              -32.79          25.98          67.42          65.81         -9.902         -19.47         -103.8           50.0         -175.6          119.2          129.7
    0.1268               -32.8          25.98          67.42          65.81         -9.903         -19.47         -103.8           50.0         -175.5          119.2          129.7
    0.1522               -32.8          25.97          67.42           65.8         -9.903         -19.46         -103.8           50.0         -175.5          119.2          129.7
    0.1776               -32.8          25.97          67.43           65.8         -9.903         -19.46         -103.8          50.01         -175.4          119.2          129.6
     0.203              -32.81          25.97          67.43          65.79         -9.904         -19.45         -103.8          50.01         -175.3          119.2          129.6
    0.2283              -32.81          25.97          67.43          65.78         -9.904         -19.44         -103.8          50.01         -175.3          119.2          129.6
    0.2537              -32.82          25.96          67.43          65.77         -9.905         -19.43         -103.8          50.01         -175.2          119.1          129.6
    0.2791              -32.82          25.96          67.43          65.77         -9.905         -19.42         -103.8          50.01         -175.1          119.1          129.6
    0.3044              -32.83          25.95          67.43          65.76         -9.906         -19.41         -103.8          50.02         -175.0          119.1          129.5
    0.3298              -32.83          25.95          67.44          65.75         -9.906          -19.4         -103.8          50.02         -174.9          119.1          129.5
    0.3552              -32.84          25.95          67.44          65.74         -9.907         -19.39         -103.8          50.02         -174.8          119.0          129.5
    0.3805              -32.84          25.94          67.44          65.72         -9.907         -19.38         -103.7          50.03         -174.7          119.0          129.4
    0.4059              -32.85          25.94          67.44          65.71         -9.908         -19.37         -103.7          50.03         -174.6          119.0          129.4
    0.4313              -32.86          25.93          67.45           65.7         -9.909         -19.35         -103.7          50.03         -174.5          119.0          129.3
    0.4566              -32.86          25.92          67.45          65.68          -9.91         -19.34         -103.7          50.04         -174.3          118.9          129.3
     0.482              -32.87          25.92          67.45          65.67         -9.911         -19.32         -103.7          50.04         -174.1          118.9          129.3
    0.5074              -32.88          25.91          67.45          65.65         -9.912          -19.3         -103.7          50.05         -174.0          118.8          129.2
    0.5327              -32.89           25.9          67.46          65.63         -9.913         -19.28         -103.7          50.05         -173.8          118.8          129.1
    0.5581              -32.91          25.89          67.46           65.6         -9.914         -19.26         -103.7          50.06         -173.6          118.7          129.1
    0.5835              -32.92          25.88          67.47          65.58         -9.915         -19.23         -103.7          50.07         -173.3          118.7          129.0
    0.6089              -32.93          25.87          67.47          65.55         -9.917         -19.21         -103.7          50.08         -173.1          118.6          128.9
    0.6342              -32.95          25.86          67.48          65.52         -9.918         -19.18         -103.7          50.08         -172.8          118.5          128.8
    0.6596              -32.97          25.84          67.49          65.49          -9.92         -19.14         -103.6          50.09         -172.4          118.5          128.7
     0.685              -32.99          25.83          67.49          65.45         -9.922          -19.1         -103.6          50.11         -172.1          118.4          128.6
    0.7103              -33.01          25.81           67.5          65.41         -9.924         -19.06         -103.6          50.12         -171.6          118.3          128.5
    0.7357              -33.04          25.79          67.51          65.36         -9.927         -19.01         -103.6          50.13         -171.2          118.1          128.3
    0.7611              -33.07          25.76          67.52           65.3          -9.93         -18.95         -103.5          50.15         -170.6          118.0          128.2
    0.7864               -33.1          25.74          67.53          65.24         -9.934         -18.88         -103.5          50.17         -170.0          117.9          128.0
    0.8118              -33.14           25.7          67.55          65.16         -9.938         -18.81         -103.5          50.19         -169.3          117.7          127.8
    0.8372              -33.18          25.67          67.57          65.07         -9.942         -18.72         -103.4          50.21         -168.4          117.5          127.5
    0.8625              -33.24          25.62          67.58          64.97         -9.948         -18.61         -103.4          50.24         -167.4          117.2          127.2
    0.8879               -33.3          25.57          67.61          64.85         -9.954         -18.49         -103.3          50.28         -166.3          117.0          126.8
    0.9133              -33.37          25.51          67.64          64.71         -9.962         -18.35         -103.3          50.32         -164.9          116.6          126.4
    0.9386              -33.46          25.44          67.67          64.54         -9.971         -18.17         -103.2          50.36         -163.2          116.2          125.9
     0.964              -33.57          25.36          67.71          64.34         -9.982         -17.96         -103.1          50.42         -161.2          115.7          125.3
    0.9894               -33.7          25.25          67.76          64.08         -9.996         -17.71         -103.0           50.5         -158.8          115.1          124.5
     1.015              -33.87          25.12          67.82          63.77         -10.01         -17.39         -102.8          50.58         -155.8          114.4          123.6
      1.04              -34.07          24.96          67.89          63.39         -10.03         -16.99         -102.7           50.7         -152.0          113.5          122.5
     1.065              -34.33          24.75          67.99           62.9         -10.06         -16.49         -102.4          50.84         -147.3          112.3          121.0
     1.091              -34.65          24.49          68.11          62.28         -10.09         -15.86         -102.1          51.01         -141.3          110.8          119.2
     1.116              -35.07          24.15          68.26          61.48         -10.14         -15.05         -101.8          51.24         -133.6          108.9          116.8
     1.142              -35.61          23.72          68.45          60.47         -10.19         -14.01         -101.3          51.53         -123.7          106.5          113.8
     1.167              -36.29          23.18          68.71          59.16         -10.26         -12.68         -100.7           51.9         -111.1          103.4          109.9
     1.192              -37.15          22.49          69.02          57.53         -10.35         -11.01         -99.92          52.37         -95.22          99.54          105.0
     1.218               -38.2          21.64          69.41          55.54         -10.46         -8.969         -98.98          52.94         -75.88          94.81          99.09
     1.243              -39.42          20.67          69.85          53.22         -10.58         -6.607          -97.9           53.6         -53.46          89.31           92.2
     1.268              -40.73          19.62          70.34          50.72         -10.72          -4.05         -96.74          54.32         -29.19          83.37          84.75
     1.294              -42.05          18.56          70.82          48.22         -10.85         -1.493         -95.57          55.03         -4.913          77.42           77.3
     1.319              -43.27          17.59          71.27          45.91         -10.98         0.8684         -94.49          55.69           17.5          71.93          70.42
     1.345              -44.31          16.75          71.65          43.92         -11.08          2.906         -93.55          56.27          36.84          67.19          64.48
      1.37              -45.17          16.06          71.97          42.28         -11.17          4.578         -92.79          56.73          52.71           63.3          59.61
     1.395              -45.86          15.51          72.22          40.98         -11.24          5.907         -92.18          57.11          65.33          60.21          55.74
     1.421              -46.39          15.08          72.41          39.96          -11.3          6.948         -91.71           57.4          75.22          57.79           52.7
     1.446              -46.81          14.74          72.57          39.17         -11.34          7.759         -91.34          57.62          82.92           55.9          50.34
     1.471              -47.14          14.48          72.69          38.55         -11.37          8.393         -91.05           57.8          88.93          54.43          48.49
     1.497              -47.39          14.28          72.78          38.06          -11.4          8.892         -90.82          57.94          93.66          53.27          47.04
